<mxfile host="app.diagrams.net" modified="2021-07-24T05:15:01.750Z" agent="5.0 (Windows NT 10.0; Win64; x64) AppleWebKit/537.36 (KHTML, like Gecko) Chrome/91.0.4472.164 Safari/537.36" etag="tW9p6vW4YuonEjKAhs_W" version="14.9.2" type="github">
  <diagram id="bG7YgL3DJKL2CItbvuBj" name="Page-1">
    <mxGraphModel dx="782" dy="450" grid="1" gridSize="11" guides="1" tooltips="1" connect="1" arrows="1" fold="1" page="1" pageScale="1" pageWidth="827" pageHeight="1169" background="#DAD2D8" math="0" shadow="1">
      <root>
        <mxCell id="0" />
        <mxCell id="1" parent="0" />
        <mxCell id="KV4xG0wxOlL6aqHjHEJp-19" value="" style="edgeStyle=orthogonalEdgeStyle;orthogonalLoop=1;jettySize=auto;html=1;strokeColor=#A8201A;fontColor=#143642;labelBackgroundColor=#DAD2D8;sketch=1;curved=1;" edge="1" parent="1" source="KV4xG0wxOlL6aqHjHEJp-1" target="KV4xG0wxOlL6aqHjHEJp-2">
          <mxGeometry relative="1" as="geometry">
            <Array as="points">
              <mxPoint x="330" y="143" />
              <mxPoint x="330" y="143" />
            </Array>
          </mxGeometry>
        </mxCell>
        <mxCell id="KV4xG0wxOlL6aqHjHEJp-1" value="adopcion de animales" style="whiteSpace=wrap;html=1;aspect=fixed;fillColor=#FAE5C7;strokeColor=#0F8B8D;fontColor=#143642;sketch=1;rounded=1;" vertex="1" parent="1">
          <mxGeometry x="310" y="160" width="80" height="80" as="geometry" />
        </mxCell>
        <mxCell id="KV4xG0wxOlL6aqHjHEJp-27" value="" style="edgeStyle=orthogonalEdgeStyle;curved=1;rounded=1;sketch=1;orthogonalLoop=1;jettySize=auto;html=1;fontColor=#143642;strokeColor=#A8201A;fillColor=#FAE5C7;" edge="1" parent="1" source="KV4xG0wxOlL6aqHjHEJp-2" target="KV4xG0wxOlL6aqHjHEJp-1">
          <mxGeometry relative="1" as="geometry" />
        </mxCell>
        <mxCell id="KV4xG0wxOlL6aqHjHEJp-2" value="cliente" style="whiteSpace=wrap;html=1;aspect=fixed;fillColor=#FAE5C7;strokeColor=#0F8B8D;fontColor=#143642;sketch=1;rounded=1;" vertex="1" parent="1">
          <mxGeometry x="310" y="40" width="80" height="80" as="geometry" />
        </mxCell>
        <mxCell id="KV4xG0wxOlL6aqHjHEJp-26" style="edgeStyle=orthogonalEdgeStyle;curved=1;rounded=1;sketch=1;orthogonalLoop=1;jettySize=auto;html=1;entryX=0;entryY=0.25;entryDx=0;entryDy=0;fontColor=#143642;strokeColor=#A8201A;fillColor=#FAE5C7;" edge="1" parent="1" source="KV4xG0wxOlL6aqHjHEJp-3" target="KV4xG0wxOlL6aqHjHEJp-1">
          <mxGeometry relative="1" as="geometry" />
        </mxCell>
        <mxCell id="KV4xG0wxOlL6aqHjHEJp-3" value="perros de raza&lt;span style=&quot;white-space: pre&quot;&gt;	&lt;/span&gt;&lt;span style=&quot;white-space: pre&quot;&gt;	&lt;/span&gt;" style="whiteSpace=wrap;html=1;aspect=fixed;fillColor=#FAE5C7;strokeColor=#0F8B8D;fontColor=#143642;sketch=1;rounded=1;" vertex="1" parent="1">
          <mxGeometry x="50" y="280" width="80" height="80" as="geometry" />
        </mxCell>
        <mxCell id="KV4xG0wxOlL6aqHjHEJp-25" style="edgeStyle=orthogonalEdgeStyle;curved=1;rounded=1;sketch=1;orthogonalLoop=1;jettySize=auto;html=1;entryX=0;entryY=0.5;entryDx=0;entryDy=0;fontColor=#143642;strokeColor=#A8201A;fillColor=#FAE5C7;" edge="1" parent="1" source="KV4xG0wxOlL6aqHjHEJp-4" target="KV4xG0wxOlL6aqHjHEJp-1">
          <mxGeometry relative="1" as="geometry" />
        </mxCell>
        <mxCell id="KV4xG0wxOlL6aqHjHEJp-4" value="perro de no raza&lt;br&gt;" style="whiteSpace=wrap;html=1;aspect=fixed;fillColor=#FAE5C7;strokeColor=#0F8B8D;fontColor=#143642;sketch=1;rounded=1;" vertex="1" parent="1">
          <mxGeometry x="220" y="297" width="63" height="63" as="geometry" />
        </mxCell>
        <mxCell id="KV4xG0wxOlL6aqHjHEJp-24" value="" style="edgeStyle=orthogonalEdgeStyle;curved=1;rounded=1;sketch=1;orthogonalLoop=1;jettySize=auto;html=1;fontColor=#143642;strokeColor=#A8201A;fillColor=#FAE5C7;" edge="1" parent="1" source="KV4xG0wxOlL6aqHjHEJp-5" target="KV4xG0wxOlL6aqHjHEJp-1">
          <mxGeometry relative="1" as="geometry" />
        </mxCell>
        <mxCell id="KV4xG0wxOlL6aqHjHEJp-5" value="animales con defectos" style="whiteSpace=wrap;html=1;aspect=fixed;fillColor=#FAE5C7;strokeColor=#0F8B8D;fontColor=#143642;sketch=1;rounded=1;" vertex="1" parent="1">
          <mxGeometry x="350" y="286" width="74" height="74" as="geometry" />
        </mxCell>
        <mxCell id="KV4xG0wxOlL6aqHjHEJp-23" style="edgeStyle=orthogonalEdgeStyle;curved=1;rounded=1;sketch=1;orthogonalLoop=1;jettySize=auto;html=1;entryX=1;entryY=0.75;entryDx=0;entryDy=0;fontColor=#143642;strokeColor=#A8201A;fillColor=#FAE5C7;" edge="1" parent="1" source="KV4xG0wxOlL6aqHjHEJp-6" target="KV4xG0wxOlL6aqHjHEJp-1">
          <mxGeometry relative="1" as="geometry">
            <Array as="points">
              <mxPoint x="445" y="286" />
              <mxPoint x="445" y="220" />
            </Array>
          </mxGeometry>
        </mxCell>
        <mxCell id="KV4xG0wxOlL6aqHjHEJp-6" value="otro tipo de animales" style="whiteSpace=wrap;html=1;aspect=fixed;fillColor=#FAE5C7;strokeColor=#0F8B8D;fontColor=#143642;sketch=1;rounded=1;" vertex="1" parent="1">
          <mxGeometry x="500" y="280" width="80" height="80" as="geometry" />
        </mxCell>
        <mxCell id="KV4xG0wxOlL6aqHjHEJp-22" style="edgeStyle=orthogonalEdgeStyle;orthogonalLoop=1;jettySize=auto;html=1;entryX=0;entryY=0.5;entryDx=0;entryDy=0;strokeColor=#A8201A;fontColor=#143642;labelBackgroundColor=#DAD2D8;sketch=1;curved=1;" edge="1" parent="1" source="KV4xG0wxOlL6aqHjHEJp-7" target="KV4xG0wxOlL6aqHjHEJp-6">
          <mxGeometry relative="1" as="geometry" />
        </mxCell>
        <mxCell id="KV4xG0wxOlL6aqHjHEJp-7" value="Aves" style="whiteSpace=wrap;html=1;aspect=fixed;fillColor=#FAE5C7;strokeColor=#0F8B8D;fontColor=#143642;sketch=1;rounded=1;" vertex="1" parent="1">
          <mxGeometry x="410" y="400" width="80" height="80" as="geometry" />
        </mxCell>
        <mxCell id="KV4xG0wxOlL6aqHjHEJp-20" value="" style="edgeStyle=orthogonalEdgeStyle;orthogonalLoop=1;jettySize=auto;html=1;strokeColor=#A8201A;fontColor=#143642;labelBackgroundColor=#DAD2D8;sketch=1;curved=1;" edge="1" parent="1" source="KV4xG0wxOlL6aqHjHEJp-8" target="KV4xG0wxOlL6aqHjHEJp-6">
          <mxGeometry relative="1" as="geometry" />
        </mxCell>
        <mxCell id="KV4xG0wxOlL6aqHjHEJp-8" value="gatos" style="whiteSpace=wrap;html=1;aspect=fixed;fillColor=#FAE5C7;strokeColor=#0F8B8D;fontColor=#143642;sketch=1;rounded=1;" vertex="1" parent="1">
          <mxGeometry x="530" y="410" width="80" height="80" as="geometry" />
        </mxCell>
        <mxCell id="KV4xG0wxOlL6aqHjHEJp-21" style="edgeStyle=orthogonalEdgeStyle;orthogonalLoop=1;jettySize=auto;html=1;entryX=1;entryY=0.5;entryDx=0;entryDy=0;fillColor=#FAE5C7;strokeColor=#A8201A;fontColor=#143642;labelBackgroundColor=#DAD2D8;sketch=1;curved=1;" edge="1" parent="1" source="KV4xG0wxOlL6aqHjHEJp-9" target="KV4xG0wxOlL6aqHjHEJp-6">
          <mxGeometry relative="1" as="geometry" />
        </mxCell>
        <mxCell id="KV4xG0wxOlL6aqHjHEJp-9" value="hamsters" style="whiteSpace=wrap;html=1;aspect=fixed;fillColor=#FAE5C7;strokeColor=#0F8B8D;fontColor=#143642;sketch=1;rounded=1;" vertex="1" parent="1">
          <mxGeometry x="680" y="400" width="80" height="80" as="geometry" />
        </mxCell>
      </root>
    </mxGraphModel>
  </diagram>
</mxfile>
